<svg xmlns="http://www.w3.org/2000/svg" xmlns:xlink="http://www.w3.org/1999/xlink" id="processonSvg1000" viewBox="49.0 65.0 1412.25 1735.0" width="1412.25" height="1735.0"><defs id="ProcessOnDefs1001"><marker id="ProcessOnMarker1011" markerUnits="userSpaceOnUse" orient="auto" markerWidth="16.23606797749979" markerHeight="10.550836550532098" viewBox="-1.0 -1.3763819204711736 16.23606797749979 10.550836550532098" refX="-1.0" refY="3.8990363547948754"><path id="ProcessOnPath1012" d="M12.0 3.8990363547948754L0.0 7.798072709589751V0.0Z" stroke="#323232" stroke-width="2.0" fill="#323232" transform="matrix(1.0,0.0,0.0,1.0,0.0,0.0)"/></marker><marker id="ProcessOnMarker1019" markerUnits="userSpaceOnUse" orient="auto" markerWidth="16.23606797749979" markerHeight="10.550836550532098" viewBox="-1.0 -1.3763819204711736 16.23606797749979 10.550836550532098" refX="-1.0" refY="3.8990363547948754"><path id="ProcessOnPath1020" d="M12.0 3.8990363547948754L0.0 7.798072709589751V0.0Z" stroke="#323232" stroke-width="2.0" fill="#323232" transform="matrix(1.0,0.0,0.0,1.0,0.0,0.0)"/></marker><marker id="ProcessOnMarker1026" markerUnits="userSpaceOnUse" orient="auto" markerWidth="16.23606797749979" markerHeight="10.550836550532098" viewBox="-1.0 -1.3763819204711736 16.23606797749979 10.550836550532098" refX="-1.0" refY="3.8990363547948754"><path id="ProcessOnPath1027" d="M12.0 3.8990363547948754L0.0 7.798072709589751V0.0Z" stroke="#323232" stroke-width="2.0" fill="#323232" transform="matrix(1.0,0.0,0.0,1.0,0.0,0.0)"/></marker><marker id="ProcessOnMarker1048" markerUnits="userSpaceOnUse" orient="auto" markerWidth="16.23606797749979" markerHeight="10.550836550532098" viewBox="-1.0 -1.3763819204711736 16.23606797749979 10.550836550532098" refX="-1.0" refY="3.8990363547948754"><path id="ProcessOnPath1049" d="M12.0 3.8990363547948754L0.0 7.798072709589751V0.0Z" stroke="#323232" stroke-width="2.0" fill="#323232" transform="matrix(1.0,0.0,0.0,1.0,0.0,0.0)"/></marker><marker id="ProcessOnMarker1065" markerUnits="userSpaceOnUse" orient="auto" markerWidth="16.23606797749979" markerHeight="10.550836550532098" viewBox="-1.0 -1.3763819204711736 16.23606797749979 10.550836550532098" refX="-1.0" refY="3.8990363547948754"><path id="ProcessOnPath1066" d="M12.0 3.8990363547948754L0.0 7.798072709589751V0.0Z" stroke="#323232" stroke-width="2.0" fill="#323232" transform="matrix(1.0,0.0,0.0,1.0,0.0,0.0)"/></marker><marker id="ProcessOnMarker1082" markerUnits="userSpaceOnUse" orient="auto" markerWidth="16.23606797749979" markerHeight="10.550836550532098" viewBox="-1.0 -1.3763819204711736 16.23606797749979 10.550836550532098" refX="-1.0" refY="3.8990363547948754"><path id="ProcessOnPath1083" d="M12.0 3.8990363547948754L0.0 7.798072709589751V0.0Z" stroke="#323232" stroke-width="2.0" fill="#323232" transform="matrix(1.0,0.0,0.0,1.0,0.0,0.0)"/></marker><marker id="ProcessOnMarker1089" markerUnits="userSpaceOnUse" orient="auto" markerWidth="16.23606797749979" markerHeight="10.550836550532098" viewBox="-1.0 -1.3763819204711736 16.23606797749979 10.550836550532098" refX="-1.0" refY="3.8990363547948754"><path id="ProcessOnPath1090" d="M12.0 3.8990363547948754L0.0 7.798072709589751V0.0Z" stroke="#323232" stroke-width="2.0" fill="#323232" transform="matrix(1.0,0.0,0.0,1.0,0.0,0.0)"/></marker><marker id="ProcessOnMarker1105" markerUnits="userSpaceOnUse" orient="auto" markerWidth="16.23606797749979" markerHeight="10.550836550532098" viewBox="-1.0 -1.3763819204711736 16.23606797749979 10.550836550532098" refX="-1.0" refY="3.8990363547948754"><path id="ProcessOnPath1106" d="M12.0 3.8990363547948754L0.0 7.798072709589751V0.0Z" stroke="#323232" stroke-width="2.0" fill="#323232" transform="matrix(1.0,0.0,0.0,1.0,0.0,0.0)"/></marker><marker id="ProcessOnMarker1109" markerUnits="userSpaceOnUse" orient="auto" markerWidth="16.23606797749979" markerHeight="10.550836550532098" viewBox="-1.0 -1.3763819204711736 16.23606797749979 10.550836550532098" refX="-1.0" refY="3.8990363547948754"><path id="ProcessOnPath1110" d="M12.0 3.8990363547948754L0.0 7.798072709589751V0.0Z" stroke="#323232" stroke-width="2.0" fill="#323232" transform="matrix(1.0,0.0,0.0,1.0,0.0,0.0)"/></marker><marker id="ProcessOnMarker1116" markerUnits="userSpaceOnUse" orient="auto" markerWidth="16.23606797749979" markerHeight="10.550836550532098" viewBox="-1.0 -1.3763819204711736 16.23606797749979 10.550836550532098" refX="-1.0" refY="3.8990363547948754"><path id="ProcessOnPath1117" d="M12.0 3.8990363547948754L0.0 7.798072709589751V0.0Z" stroke="#323232" stroke-width="2.0" fill="#323232" transform="matrix(1.0,0.0,0.0,1.0,0.0,0.0)"/></marker><marker id="ProcessOnMarker1136" markerUnits="userSpaceOnUse" orient="auto" markerWidth="16.23606797749979" markerHeight="10.550836550532098" viewBox="-1.0 -1.3763819204711736 16.23606797749979 10.550836550532098" refX="-1.0" refY="3.8990363547948754"><path id="ProcessOnPath1137" d="M12.0 3.8990363547948754L0.0 7.798072709589751V0.0Z" stroke="#323232" stroke-width="2.0" fill="#323232" transform="matrix(1.0,0.0,0.0,1.0,0.0,0.0)"/></marker><marker id="ProcessOnMarker1156" markerUnits="userSpaceOnUse" orient="auto" markerWidth="16.23606797749979" markerHeight="10.550836550532098" viewBox="-1.0 -1.3763819204711736 16.23606797749979 10.550836550532098" refX="-1.0" refY="3.8990363547948754"><path id="ProcessOnPath1157" d="M12.0 3.8990363547948754L0.0 7.798072709589751V0.0Z" stroke="#323232" stroke-width="2.0" fill="#323232" transform="matrix(1.0,0.0,0.0,1.0,0.0,0.0)"/></marker><marker id="ProcessOnMarker1160" markerUnits="userSpaceOnUse" orient="auto" markerWidth="16.23606797749979" markerHeight="10.550836550532098" viewBox="-1.0 -1.3763819204711736 16.23606797749979 10.550836550532098" refX="-1.0" refY="3.8990363547948754"><path id="ProcessOnPath1161" d="M12.0 3.8990363547948754L0.0 7.798072709589751V0.0Z" stroke="#323232" stroke-width="2.0" fill="#323232" transform="matrix(1.0,0.0,0.0,1.0,0.0,0.0)"/></marker><marker id="ProcessOnMarker1167" markerUnits="userSpaceOnUse" orient="auto" markerWidth="16.23606797749979" markerHeight="10.550836550532098" viewBox="-1.0 -1.3763819204711736 16.23606797749979 10.550836550532098" refX="-1.0" refY="3.8990363547948754"><path id="ProcessOnPath1168" d="M12.0 3.8990363547948754L0.0 7.798072709589751V0.0Z" stroke="#323232" stroke-width="2.0" fill="#323232" transform="matrix(1.0,0.0,0.0,1.0,0.0,0.0)"/></marker><marker id="ProcessOnMarker1174" markerUnits="userSpaceOnUse" orient="auto" markerWidth="16.23606797749979" markerHeight="10.550836550532098" viewBox="-1.0 -1.3763819204711736 16.23606797749979 10.550836550532098" refX="-1.0" refY="3.8990363547948754"><path id="ProcessOnPath1175" d="M12.0 3.8990363547948754L0.0 7.798072709589751V0.0Z" stroke="#323232" stroke-width="2.0" fill="#323232" transform="matrix(1.0,0.0,0.0,1.0,0.0,0.0)"/></marker><marker id="ProcessOnMarker1185" markerUnits="userSpaceOnUse" orient="auto" markerWidth="16.23606797749979" markerHeight="10.550836550532098" viewBox="-1.0 -1.3763819204711736 16.23606797749979 10.550836550532098" refX="-1.0" refY="3.8990363547948754"><path id="ProcessOnPath1186" d="M12.0 3.8990363547948754L0.0 7.798072709589751V0.0Z" stroke="#323232" stroke-width="2.0" fill="#323232" transform="matrix(1.0,0.0,0.0,1.0,0.0,0.0)"/></marker><marker id="ProcessOnMarker1192" markerUnits="userSpaceOnUse" orient="auto" markerWidth="16.23606797749979" markerHeight="10.550836550532098" viewBox="-1.0 -1.3763819204711736 16.23606797749979 10.550836550532098" refX="-1.0" refY="3.8990363547948754"><path id="ProcessOnPath1193" d="M12.0 3.8990363547948754L0.0 7.798072709589751V0.0Z" stroke="#323232" stroke-width="2.0" fill="#323232" transform="matrix(1.0,0.0,0.0,1.0,0.0,0.0)"/></marker><marker id="ProcessOnMarker1199" markerUnits="userSpaceOnUse" orient="auto" markerWidth="16.23606797749979" markerHeight="10.550836550532098" viewBox="-1.0 -1.3763819204711736 16.23606797749979 10.550836550532098" refX="-1.0" refY="3.8990363547948754"><path id="ProcessOnPath1200" d="M12.0 3.8990363547948754L0.0 7.798072709589751V0.0Z" stroke="#323232" stroke-width="2.0" fill="#323232" transform="matrix(1.0,0.0,0.0,1.0,0.0,0.0)"/></marker><marker id="ProcessOnMarker1206" markerUnits="userSpaceOnUse" orient="auto" markerWidth="16.23606797749979" markerHeight="10.550836550532098" viewBox="-1.0 -1.3763819204711736 16.23606797749979 10.550836550532098" refX="-1.0" refY="3.8990363547948754"><path id="ProcessOnPath1207" d="M12.0 3.8990363547948754L0.0 7.798072709589751V0.0Z" stroke="#323232" stroke-width="2.0" fill="#323232" transform="matrix(1.0,0.0,0.0,1.0,0.0,0.0)"/></marker><marker id="ProcessOnMarker1213" markerUnits="userSpaceOnUse" orient="auto" markerWidth="16.23606797749979" markerHeight="10.550836550532098" viewBox="-1.0 -1.3763819204711736 16.23606797749979 10.550836550532098" refX="-1.0" refY="3.8990363547948754"><path id="ProcessOnPath1214" d="M12.0 3.8990363547948754L0.0 7.798072709589751V0.0Z" stroke="#323232" stroke-width="2.0" fill="#323232" transform="matrix(1.0,0.0,0.0,1.0,0.0,0.0)"/></marker><marker id="ProcessOnMarker1220" markerUnits="userSpaceOnUse" orient="auto" markerWidth="16.23606797749979" markerHeight="10.550836550532098" viewBox="-1.0 -1.3763819204711736 16.23606797749979 10.550836550532098" refX="-1.0" refY="3.8990363547948754"><path id="ProcessOnPath1221" d="M12.0 3.8990363547948754L0.0 7.798072709589751V0.0Z" stroke="#323232" stroke-width="2.0" fill="#323232" transform="matrix(1.0,0.0,0.0,1.0,0.0,0.0)"/></marker><marker id="ProcessOnMarker1236" markerUnits="userSpaceOnUse" orient="auto" markerWidth="16.23606797749979" markerHeight="10.550836550532098" viewBox="-1.0 -1.3763819204711736 16.23606797749979 10.550836550532098" refX="-1.0" refY="3.8990363547948754"><path id="ProcessOnPath1237" d="M12.0 3.8990363547948754L0.0 7.798072709589751V0.0Z" stroke="#323232" stroke-width="2.0" fill="#323232" transform="matrix(1.0,0.0,0.0,1.0,0.0,0.0)"/></marker><marker id="ProcessOnMarker1243" markerUnits="userSpaceOnUse" orient="auto" markerWidth="16.23606797749979" markerHeight="10.550836550532098" viewBox="-1.0 -1.3763819204711736 16.23606797749979 10.550836550532098" refX="-1.0" refY="3.8990363547948754"><path id="ProcessOnPath1244" d="M12.0 3.8990363547948754L0.0 7.798072709589751V0.0Z" stroke="#323232" stroke-width="2.0" fill="#323232" transform="matrix(1.0,0.0,0.0,1.0,0.0,0.0)"/></marker><marker id="ProcessOnMarker1250" markerUnits="userSpaceOnUse" orient="auto" markerWidth="16.23606797749979" markerHeight="10.550836550532098" viewBox="-1.0 -1.3763819204711736 16.23606797749979 10.550836550532098" refX="-1.0" refY="3.8990363547948754"><path id="ProcessOnPath1251" d="M12.0 3.8990363547948754L0.0 7.798072709589751V0.0Z" stroke="#323232" stroke-width="2.0" fill="#323232" transform="matrix(1.0,0.0,0.0,1.0,0.0,0.0)"/></marker><marker id="ProcessOnMarker1257" markerUnits="userSpaceOnUse" orient="auto" markerWidth="16.23606797749979" markerHeight="10.550836550532098" viewBox="-1.0 -1.3763819204711736 16.23606797749979 10.550836550532098" refX="-1.0" refY="3.8990363547948754"><path id="ProcessOnPath1258" d="M12.0 3.8990363547948754L0.0 7.798072709589751V0.0Z" stroke="#323232" stroke-width="2.0" fill="#323232" transform="matrix(1.0,0.0,0.0,1.0,0.0,0.0)"/></marker><marker id="ProcessOnMarker1264" markerUnits="userSpaceOnUse" orient="auto" markerWidth="16.23606797749979" markerHeight="10.550836550532098" viewBox="-1.0 -1.3763819204711736 16.23606797749979 10.550836550532098" refX="-1.0" refY="3.8990363547948754"><path id="ProcessOnPath1265" d="M12.0 3.8990363547948754L0.0 7.798072709589751V0.0Z" stroke="#323232" stroke-width="2.0" fill="#323232" transform="matrix(1.0,0.0,0.0,1.0,0.0,0.0)"/></marker><marker id="ProcessOnMarker1281" markerUnits="userSpaceOnUse" orient="auto" markerWidth="16.23606797749979" markerHeight="10.550836550532098" viewBox="-1.0 -1.3763819204711736 16.23606797749979 10.550836550532098" refX="-1.0" refY="3.8990363547948754"><path id="ProcessOnPath1282" d="M12.0 3.8990363547948754L0.0 7.798072709589751V0.0Z" stroke="#323232" stroke-width="2.0" fill="#323232" transform="matrix(1.0,0.0,0.0,1.0,0.0,0.0)"/></marker><marker id="ProcessOnMarker1292" markerUnits="userSpaceOnUse" orient="auto" markerWidth="16.23606797749979" markerHeight="10.550836550532098" viewBox="-1.0 -1.3763819204711736 16.23606797749979 10.550836550532098" refX="-1.0" refY="3.8990363547948754"><path id="ProcessOnPath1293" d="M12.0 3.8990363547948754L0.0 7.798072709589751V0.0Z" stroke="#323232" stroke-width="2.0" fill="#323232" transform="matrix(1.0,0.0,0.0,1.0,0.0,0.0)"/></marker><marker id="ProcessOnMarker1299" markerUnits="userSpaceOnUse" orient="auto" markerWidth="16.23606797749979" markerHeight="10.550836550532098" viewBox="-1.0 -1.3763819204711736 16.23606797749979 10.550836550532098" refX="-1.0" refY="3.8990363547948754"><path id="ProcessOnPath1300" d="M12.0 3.8990363547948754L0.0 7.798072709589751V0.0Z" stroke="#323232" stroke-width="2.0" fill="#323232" transform="matrix(1.0,0.0,0.0,1.0,0.0,0.0)"/></marker><marker id="ProcessOnMarker1306" markerUnits="userSpaceOnUse" orient="auto" markerWidth="16.23606797749979" markerHeight="10.550836550532098" viewBox="-1.0 -1.3763819204711736 16.23606797749979 10.550836550532098" refX="-1.0" refY="3.8990363547948754"><path id="ProcessOnPath1307" d="M12.0 3.8990363547948754L0.0 7.798072709589751V0.0Z" stroke="#323232" stroke-width="2.0" fill="#323232" transform="matrix(1.0,0.0,0.0,1.0,0.0,0.0)"/></marker><marker id="ProcessOnMarker1313" markerUnits="userSpaceOnUse" orient="auto" markerWidth="16.23606797749979" markerHeight="10.550836550532098" viewBox="-1.0 -1.3763819204711736 16.23606797749979 10.550836550532098" refX="-1.0" refY="3.8990363547948754"><path id="ProcessOnPath1314" d="M12.0 3.8990363547948754L0.0 7.798072709589751V0.0Z" stroke="#323232" stroke-width="2.0" fill="#323232" transform="matrix(1.0,0.0,0.0,1.0,0.0,0.0)"/></marker></defs><g id="ProcessOnG1002"><path id="ProcessOnPath1003" d="M49.0 65.0H1461.25V1800.0H49.0V65.0Z" fill="#ffffff"/><g id="ProcessOnG1004"><g id="ProcessOnG1005" transform="matrix(1.0,0.0,0.0,1.0,267.0,147.0)" opacity="1.0"><path id="ProcessOnPath1006" d="M0.0 0.0L107.0 0.0L107.0 60.0L0.0 60.0Z" stroke="#323232" stroke-width="2.0" stroke-dasharray="none" opacity="1.0" fill="#66ff66"/><g id="ProcessOnG1007" transform="matrix(1.0,0.0,0.0,1.0,10.0,21.875)"><text id="ProcessOnText1008" fill="#323232" font-weight="normal" font-style="normal" text-decoration="blink" font-family="Arial,宋体" text-anchor="middle" font-size="13" x="43.5" y="13.325">用户登录</text></g></g><g id="ProcessOnG1009"><path id="ProcessOnPath1010" d="M374.0 177.0L411.5 177.0L411.5 177.0L433.7639320225002 177.0" stroke="#323232" stroke-width="2.0" stroke-dasharray="none" fill="none" marker-end="url(#ProcessOnMarker1011)"/></g><g id="ProcessOnG1013" transform="matrix(1.0,0.0,0.0,1.0,449.0,134.0)" opacity="1.0"><path id="ProcessOnPath1014" d="M0.0 43.0L52.0 0.0L104.0 43.0L52.0 86.0L0.0 43.0Z" stroke="#323232" stroke-width="2.0" stroke-dasharray="none" opacity="1.0" fill="#ffff66"/><g id="ProcessOnG1015" transform="matrix(1.0,0.0,0.0,1.0,10.0,34.875)"><text id="ProcessOnText1016" fill="#323232" font-weight="normal" font-style="normal" text-decoration="blink" font-family="Arial,宋体" text-anchor="middle" font-size="13" x="42.0" y="13.325">登录成功</text></g></g><g id="ProcessOnG1017"><path id="ProcessOnPath1018" d="M553.0 177.0L597.5 177.0L597.5 177.0L626.7639320225002 177.0" stroke="#323232" stroke-width="2.0" stroke-dasharray="none" fill="none" marker-end="url(#ProcessOnMarker1019)"/><g id="ProcessOnG1021" transform="matrix(1.0,0.0,0.0,1.0,589.8819660112501,168.875)"><path id="ProcessOnPath1022" d="M0 0H18.0V16.25H0Z" fill="#fff" transform="matrix(1.0,0.0,0.0,1.0,-9.0,0.0)"/><text id="ProcessOnText1023" fill="#323232" font-weight="normal" font-style="normal" text-decoration="blink" font-family="Arial,宋体" text-anchor="middle" font-size="13" x="0.0" y="13.325">No</text></g></g><g id="ProcessOnG1024"><path id="ProcessOnPath1025" d="M501.0 220.0L501.0 266.0L501.0 266.0L501.0 296.7639320225002" stroke="#323232" stroke-width="2.0" stroke-dasharray="none" fill="none" marker-end="url(#ProcessOnMarker1026)"/><g id="ProcessOnG1028" transform="matrix(1.0,0.0,0.0,1.0,501.0,250.25696601125014)"><path id="ProcessOnPath1029" d="M0 0H22.0V16.25H0Z" fill="#fff" transform="matrix(1.0,0.0,0.0,1.0,-11.0,0.0)"/><text id="ProcessOnText1030" fill="#323232" font-weight="normal" font-style="normal" text-decoration="blink" font-family="Arial,宋体" text-anchor="middle" font-size="13" x="0.0" y="13.325">YES</text></g></g><g id="ProcessOnG1031" transform="matrix(1.0,0.0,0.0,1.0,642.0,147.0)" opacity="1.0"><path id="ProcessOnPath1032" d="M0.0 0.0L107.0 0.0L107.0 60.0L0.0 60.0Z" stroke="#323232" stroke-width="2.0" stroke-dasharray="none" opacity="1.0" fill="#ff6666"/><g id="ProcessOnG1033" transform="matrix(1.0,0.0,0.0,1.0,10.0,13.75)"><text id="ProcessOnText1034" fill="#ffffff" font-weight="normal" font-style="normal" text-decoration="blink" font-family="Arial,宋体" text-anchor="middle" font-size="13" x="43.5" y="13.325">Toast失败，请求</text><text id="ProcessOnText1035" fill="#ffffff" font-weight="normal" font-style="normal" text-decoration="blink" font-family="Arial,宋体" text-anchor="middle" font-size="13" x="43.5" y="29.575">结束</text></g></g><g id="ProcessOnG1036" transform="matrix(1.0,0.0,0.0,1.0,428.25,312.0)" opacity="1.0"><path id="ProcessOnPath1037" d="M0.0 0.0L145.5 0.0L145.5 72.0L0.0 72.0Z" stroke="#323232" stroke-width="2.0" stroke-dasharray="none" opacity="1.0" fill="#66ff66"/><g id="ProcessOnG1038" transform="matrix(1.0,0.0,0.0,1.0,10.0,11.625)"><text id="ProcessOnText1039" fill="#323232" font-weight="normal" font-style="normal" text-decoration="blink" font-family="Arial,宋体" text-anchor="middle" font-size="13" x="62.75" y="13.325">储存用户信息、tgt、tok</text><text id="ProcessOnText1040" fill="#323232" font-weight="normal" font-style="normal" text-decoration="blink" font-family="Arial,宋体" text-anchor="middle" font-size="13" x="62.75" y="29.575">en、tgt有效期和token</text><text id="ProcessOnText1041" fill="#323232" font-weight="normal" font-style="normal" text-decoration="blink" font-family="Arial,宋体" text-anchor="middle" font-size="13" x="62.75" y="45.825">有限期</text></g></g><g id="ProcessOnG1042" transform="matrix(1.0,0.0,0.0,1.0,69.0,85.0)" opacity="1.0"><path id="ProcessOnPath1043" d="M0.0 0.0L213.0 0.0L213.0 30.0L0.0 30.0Z" stroke="#323232" stroke-width="0.0" stroke-dasharray="none" opacity="1.0" fill="none"/><g id="ProcessOnG1044" transform="matrix(1.0,0.0,0.0,1.0,0.0,1.875)"><text id="ProcessOnText1045" fill="#000000" font-weight="normal" font-style="normal" text-decoration="blink" font-family="微软雅黑" text-anchor="middle" font-size="21" x="106.5" y="21.525">正常登录：</text></g></g><g id="ProcessOnG1046"><path id="ProcessOnPath1047" d="M501.0 384.0L501.0 408.0L501.0 408.0L501.0 416.7639320225002" stroke="#323232" stroke-width="2.0" stroke-dasharray="none" fill="none" marker-end="url(#ProcessOnMarker1048)"/></g><g id="ProcessOnG1050" transform="matrix(1.0,0.0,0.0,1.0,434.0,432.0)" opacity="1.0"><path id="ProcessOnPath1051" d="M18.0 0.0L116.0 0.0C140.0 0.0 140.0 54.0 116.0 54.0L18.0 54.0C-6.0 54.0 -6.0 0.0 18.0 0.0Z" stroke="#323232" stroke-width="2.0" stroke-dasharray="none" opacity="1.0" fill="#ff6666"/><g id="ProcessOnG1052" transform="matrix(1.0,0.0,0.0,1.0,10.0,10.75)"><text id="ProcessOnText1053" fill="#ffffff" font-weight="normal" font-style="normal" text-decoration="blink" font-family="微软雅黑" text-anchor="middle" font-size="13" x="57.0" y="13.325">返回上一级界面，</text><text id="ProcessOnText1054" fill="#ffffff" font-weight="normal" font-style="normal" text-decoration="blink" font-family="微软雅黑" text-anchor="middle" font-size="13" x="57.0" y="29.575">请求结束</text></g></g><g id="ProcessOnG1055" transform="matrix(1.0,0.0,0.0,1.0,69.0,593.0)" opacity="1.0"><path id="ProcessOnPath1056" d="M0.0 0.0L213.0 0.0L213.0 30.0L0.0 30.0Z" stroke="#323232" stroke-width="0.0" stroke-dasharray="none" opacity="1.0" fill="none"/><g id="ProcessOnG1057" transform="matrix(1.0,0.0,0.0,1.0,0.0,1.875)"><text id="ProcessOnText1058" fill="#000000" font-weight="normal" font-style="normal" text-decoration="blink" font-family="微软雅黑" text-anchor="middle" font-size="21" x="106.5" y="21.525">单点登录：</text></g></g><g id="ProcessOnG1059" transform="matrix(1.0,0.0,0.0,1.0,116.75,673.0)" opacity="1.0"><path id="ProcessOnPath1060" d="M0.0 0.0L107.0 0.0L107.0 60.0L0.0 60.0Z" stroke="#323232" stroke-width="2.0" stroke-dasharray="none" opacity="1.0" fill="#66ff66"/><g id="ProcessOnG1061" transform="matrix(1.0,0.0,0.0,1.0,10.0,21.875)"><text id="ProcessOnText1062" fill="#323232" font-weight="normal" font-style="normal" text-decoration="blink" font-family="Arial,宋体" text-anchor="middle" font-size="13" x="43.5" y="13.325">HTTP请求</text></g></g><g id="ProcessOnG1063"><path id="ProcessOnPath1064" d="M170.25 733.0L170.25 765.5L170.25 765.5L170.25 782.7639320225002" stroke="#323232" stroke-width="2.0" stroke-dasharray="none" fill="none" marker-end="url(#ProcessOnMarker1065)"/></g><g id="ProcessOnG1067" transform="matrix(1.0,0.0,0.0,1.0,103.75,798.0)" opacity="1.0"><path id="ProcessOnPath1068" d="M0.0 47.0L66.5 0.0L133.0 47.0L66.5 94.0L0.0 47.0Z" stroke="#323232" stroke-width="2.0" stroke-dasharray="none" opacity="1.0" fill="#ffff66"/><g id="ProcessOnG1069" transform="matrix(1.0,0.0,0.0,1.0,10.0,30.75)"><text id="ProcessOnText1070" fill="#323232" font-weight="normal" font-style="normal" text-decoration="blink" font-family="Arial,宋体" text-anchor="middle" font-size="13" x="56.5" y="13.325">本地验证是否受保护资源</text><text id="ProcessOnText1071" fill="#323232" font-weight="normal" font-style="normal" text-decoration="blink" font-family="Arial,宋体" text-anchor="middle" font-size="13" x="56.5" y="29.575">？</text></g></g><g id="ProcessOnG1072" transform="matrix(1.0,0.0,0.0,1.0,120.0,1294.0)" opacity="1.0"><path id="ProcessOnPath1073" d="M0.0 0.0L102.25 0.0L102.25 173.0L0.0 173.0Z" stroke="#323232" stroke-width="2.0" stroke-dasharray="none" opacity="1.0" fill="#66ff66"/><g id="ProcessOnG1074" transform="matrix(1.0,0.0,0.0,1.0,10.0,78.375)"><text id="ProcessOnText1075" fill="#323232" font-weight="normal" font-style="normal" text-decoration="blink" font-family="Arial,宋体" text-anchor="middle" font-size="13" x="41.125" y="13.325">正常请求</text></g></g><g id="ProcessOnG1076" transform="matrix(1.0,0.0,0.0,1.0,104.625,1551.0)" opacity="1.0"><path id="ProcessOnPath1077" d="M0.0 47.0L66.5 0.0L133.0 47.0L66.5 94.0L0.0 47.0Z" stroke="#323232" stroke-width="2.0" stroke-dasharray="none" opacity="1.0" fill="#ffff66"/><g id="ProcessOnG1078" transform="matrix(1.0,0.0,0.0,1.0,10.0,38.875)"><text id="ProcessOnText1079" fill="#323232" font-weight="normal" font-style="normal" text-decoration="blink" font-family="Arial,宋体" text-anchor="middle" font-size="13" x="56.5" y="13.325">是否成功？</text></g></g><g id="ProcessOnG1080"><path id="ProcessOnPath1081" d="M237.625 1598.0L271.625 1598.0L271.625 1598.0L290.3889320225002 1598.0" stroke="#323232" stroke-width="2.0" stroke-dasharray="none" fill="none" marker-end="url(#ProcessOnMarker1082)"/><g id="ProcessOnG1084" transform="matrix(1.0,0.0,0.0,1.0,264.00696601125014,1589.875)"><path id="ProcessOnPath1085" d="M0 0H13.0V16.25H0Z" fill="#fff" transform="matrix(1.0,0.0,0.0,1.0,-6.5,0.0)"/><text id="ProcessOnText1086" fill="#000000" font-weight="normal" font-style="normal" text-decoration="blink" font-family="微软雅黑" text-anchor="middle" font-size="13" x="0.0" y="13.325">否</text></g></g><g id="ProcessOnG1087"><path id="ProcessOnPath1088" d="M171.125 1645.0L171.125 1682.5L171.125 1682.5L171.125 1704.7639320225003" stroke="#323232" stroke-width="2.0" stroke-dasharray="none" fill="none" marker-end="url(#ProcessOnMarker1089)"/><g id="ProcessOnG1091" transform="matrix(1.0,0.0,0.0,1.0,171.125,1666.7569660112501)"><path id="ProcessOnPath1092" d="M0 0H13.0V16.25H0Z" fill="#fff" transform="matrix(1.0,0.0,0.0,1.0,-6.5,0.0)"/><text id="ProcessOnText1093" fill="#000000" font-weight="normal" font-style="normal" text-decoration="blink" font-family="微软雅黑" text-anchor="middle" font-size="13" x="0.0" y="13.325">是</text></g></g><g id="ProcessOnG1094" transform="matrix(1.0,0.0,0.0,1.0,117.625,1720.0)" opacity="1.0"><path id="ProcessOnPath1095" d="M0.0 0.0L107.0 0.0L107.0 60.0L0.0 60.0Z" stroke="#323232" stroke-width="2.0" stroke-dasharray="none" opacity="1.0" fill="#ff6666"/><g id="ProcessOnG1096" transform="matrix(1.0,0.0,0.0,1.0,10.0,13.75)"><text id="ProcessOnText1097" fill="#ffffff" font-weight="normal" font-style="normal" text-decoration="blink" font-family="Arial,宋体" text-anchor="middle" font-size="13" x="43.5" y="13.325">成功，返回数据，</text><text id="ProcessOnText1098" fill="#ffffff" font-weight="normal" font-style="normal" text-decoration="blink" font-family="Arial,宋体" text-anchor="middle" font-size="13" x="43.5" y="29.575">请求结束</text></g></g><g id="ProcessOnG1099" transform="matrix(1.0,0.0,0.0,1.0,493.0,798.0)" opacity="1.0"><path id="ProcessOnPath1100" d="M0.0 47.0L66.5 0.0L133.0 47.0L66.5 94.0L0.0 47.0Z" stroke="#323232" stroke-width="2.0" stroke-dasharray="none" opacity="1.0" fill="#ffff66"/><g id="ProcessOnG1101" transform="matrix(1.0,0.0,0.0,1.0,10.0,38.875)"><text id="ProcessOnText1102" fill="#323232" font-weight="normal" font-style="normal" text-decoration="blink" font-family="Arial,宋体" text-anchor="middle" font-size="13" x="56.5" y="13.325">本地是否存在tgt？</text></g></g><g id="ProcessOnG1103"><path id="ProcessOnPath1104" d="M171.125 1467.0L171.125 1509.0L171.125 1509.0L171.125 1535.7639320225003" stroke="#323232" stroke-width="2.0" stroke-dasharray="none" fill="none" marker-end="url(#ProcessOnMarker1105)"/></g><g id="ProcessOnG1107"><path id="ProcessOnPath1108" d="M170.25 892.0L170.25 1093.0L171.125 1093.0L171.125 1278.7639320225003" stroke="#323232" stroke-width="2.0" stroke-dasharray="none" fill="none" marker-end="url(#ProcessOnMarker1109)"/><g id="ProcessOnG1111" transform="matrix(1.0,0.0,0.0,1.0,170.25,1077.6944660112501)"><path id="ProcessOnPath1112" d="M0 0H13.0V16.25H0Z" fill="#fff" transform="matrix(1.0,0.0,0.0,1.0,-6.5,0.0)"/><text id="ProcessOnText1113" fill="#000000" font-weight="normal" font-style="normal" text-decoration="blink" font-family="微软雅黑" text-anchor="middle" font-size="13" x="0.0" y="13.325">否</text></g></g><g id="ProcessOnG1114"><path id="ProcessOnPath1115" d="M236.75 845.0L364.875 845.0L364.875 845.0L477.7639320225002 845.0" stroke="#323232" stroke-width="2.0" stroke-dasharray="none" fill="none" marker-end="url(#ProcessOnMarker1116)"/><g id="ProcessOnG1118" transform="matrix(1.0,0.0,0.0,1.0,357.25696601125014,836.875)"><path id="ProcessOnPath1119" d="M0 0H13.0V16.25H0Z" fill="#fff" transform="matrix(1.0,0.0,0.0,1.0,-6.5,0.0)"/><text id="ProcessOnText1120" fill="#000000" font-weight="normal" font-style="normal" text-decoration="blink" font-family="微软雅黑" text-anchor="middle" font-size="13" x="0.0" y="13.325">是</text></g></g><g id="ProcessOnG1121" transform="matrix(1.0,0.0,0.0,1.0,1135.0,960.0)" opacity="1.0"><path id="ProcessOnPath1122" d="M0.0 47.0L67.75 0.0L135.5 47.0L67.75 94.0L0.0 47.0Z" stroke="#323232" stroke-width="2.0" stroke-dasharray="none" opacity="1.0" fill="#ffff66"/><g id="ProcessOnG1123" transform="matrix(1.0,0.0,0.0,1.0,10.0,38.875)"><text id="ProcessOnText1124" fill="#323232" font-weight="normal" font-style="normal" text-decoration="blink" font-family="Arial,宋体" text-anchor="middle" font-size="13" x="57.75" y="13.325">是否已显示登录界面？</text></g></g><g id="ProcessOnG1125" transform="matrix(1.0,0.0,0.0,1.0,1334.25,977.0)" opacity="1.0"><path id="ProcessOnPath1126" d="M0.0 0.0L107.0 0.0L107.0 60.0L0.0 60.0Z" stroke="#323232" stroke-width="2.0" stroke-dasharray="none" opacity="1.0" fill="#ff6666"/><g id="ProcessOnG1127" transform="matrix(1.0,0.0,0.0,1.0,10.0,13.75)"><text id="ProcessOnText1128" fill="#ffffff" font-weight="normal" font-style="normal" text-decoration="blink" font-family="Arial,宋体" text-anchor="middle" font-size="13" x="43.5" y="13.325">转到登录界面，返</text><text id="ProcessOnText1129" fill="#ffffff" font-weight="normal" font-style="normal" text-decoration="blink" font-family="Arial,宋体" text-anchor="middle" font-size="13" x="43.5" y="29.575">回失败，请求结束</text></g></g><g id="ProcessOnG1130" transform="matrix(1.0,0.0,0.0,1.0,491.75,1122.0)" opacity="1.0"><path id="ProcessOnPath1131" d="M0.0 47.0L67.75 0.0L135.5 47.0L67.75 94.0L0.0 47.0Z" stroke="#323232" stroke-width="2.0" stroke-dasharray="none" opacity="1.0" fill="#ffff66"/><g id="ProcessOnG1132" transform="matrix(1.0,0.0,0.0,1.0,10.0,38.875)"><text id="ProcessOnText1133" fill="#323232" font-weight="normal" font-style="normal" text-decoration="blink" font-family="Arial,宋体" text-anchor="middle" font-size="13" x="57.75" y="13.325">本地是否存在token？</text></g></g><g id="ProcessOnG1134"><path id="ProcessOnPath1135" d="M559.5 1216.0L559.5 1247.5L559.5 1247.5L559.5 1263.7639320225003" stroke="#323232" stroke-width="2.0" stroke-dasharray="none" fill="none" marker-end="url(#ProcessOnMarker1136)"/><g id="ProcessOnG1138" transform="matrix(1.0,0.0,0.0,1.0,559.5,1231.7569660112501)"><path id="ProcessOnPath1139" d="M0 0H13.0V16.25H0Z" fill="#fff" transform="matrix(1.0,0.0,0.0,1.0,-6.5,0.0)"/><text id="ProcessOnText1140" fill="#000000" font-weight="normal" font-style="normal" text-decoration="blink" font-family="微软雅黑" text-anchor="middle" font-size="13" x="0.0" y="13.325">是</text></g></g><g id="ProcessOnG1141" transform="matrix(1.0,0.0,0.0,1.0,491.75,1279.0)" opacity="1.0"><path id="ProcessOnPath1142" d="M0.0 47.0L67.75 0.0L135.5 47.0L67.75 94.0L0.0 47.0Z" stroke="#323232" stroke-width="2.0" stroke-dasharray="none" opacity="1.0" fill="#ffff66"/><g id="ProcessOnG1143" transform="matrix(1.0,0.0,0.0,1.0,10.0,30.75)"><text id="ProcessOnText1144" fill="#323232" font-weight="normal" font-style="normal" text-decoration="blink" font-family="Arial,宋体" text-anchor="middle" font-size="13" x="57.75" y="13.325">本地验证token是否过</text><text id="ProcessOnText1145" fill="#323232" font-weight="normal" font-style="normal" text-decoration="blink" font-family="Arial,宋体" text-anchor="middle" font-size="13" x="57.75" y="29.575">期？</text></g></g><g id="ProcessOnG1146" transform="matrix(1.0,0.0,0.0,1.0,741.25,1142.0)" opacity="1.0"><path id="ProcessOnPath1147" d="M0.0 0.0L107.0 0.0L107.0 201.0L0.0 201.0Z" stroke="#323232" stroke-width="2.0" stroke-dasharray="none" opacity="1.0" fill="#66ff66"/><g id="ProcessOnG1148" transform="matrix(1.0,0.0,0.0,1.0,10.0,92.375)"><text id="ProcessOnText1149" fill="#323232" font-weight="normal" font-style="normal" text-decoration="blink" font-family="Arial,宋体" text-anchor="middle" font-size="13" x="43.5" y="13.325">用tgt请求token</text></g></g><g id="ProcessOnG1150" transform="matrix(1.0,0.0,0.0,1.0,727.0,1400.0)" opacity="1.0"><path id="ProcessOnPath1151" d="M0.0 47.0L67.75 0.0L135.5 47.0L67.75 94.0L0.0 47.0Z" stroke="#323232" stroke-width="2.0" stroke-dasharray="none" opacity="1.0" fill="#ffff66"/><g id="ProcessOnG1152" transform="matrix(1.0,0.0,0.0,1.0,10.0,38.875)"><text id="ProcessOnText1153" fill="#323232" font-weight="normal" font-style="normal" text-decoration="blink" font-family="Arial,宋体" text-anchor="middle" font-size="13" x="57.75" y="13.325">是否请求token成功</text></g></g><g id="ProcessOnG1154"><path id="ProcessOnPath1155" d="M794.75 1343.0L794.75 1371.5L794.75 1371.5L794.75 1384.7639320225003" stroke="#323232" stroke-width="2.0" stroke-dasharray="none" fill="none" marker-end="url(#ProcessOnMarker1156)"/></g><g id="ProcessOnG1158"><path id="ProcessOnPath1159" d="M626.0 845.0L880.5 845.0L880.5 1007.0L1119.7639320225003 1007.0" stroke="#323232" stroke-width="2.0" stroke-dasharray="none" fill="none" marker-end="url(#ProcessOnMarker1160)"/><g id="ProcessOnG1162" transform="matrix(1.0,0.0,0.0,1.0,880.5,910.2569660112501)"><path id="ProcessOnPath1163" d="M0 0H13.0V16.25H0Z" fill="#fff" transform="matrix(1.0,0.0,0.0,1.0,-6.5,0.0)"/><text id="ProcessOnText1164" fill="#000000" font-weight="normal" font-style="normal" text-decoration="blink" font-family="微软雅黑" text-anchor="middle" font-size="13" x="0.0" y="13.325">否</text></g></g><g id="ProcessOnG1165"><path id="ProcessOnPath1166" d="M1270.5 1007.0L1302.375 1007.0L1302.375 1007.0L1319.0139320225003 1007.0" stroke="#323232" stroke-width="2.0" stroke-dasharray="none" fill="none" marker-end="url(#ProcessOnMarker1167)"/><g id="ProcessOnG1169" transform="matrix(1.0,0.0,0.0,1.0,1294.7569660112501,998.875)"><path id="ProcessOnPath1170" d="M0 0H13.0V16.25H0Z" fill="#fff" transform="matrix(1.0,0.0,0.0,1.0,-6.5,0.0)"/><text id="ProcessOnText1171" fill="#000000" font-weight="normal" font-style="normal" text-decoration="blink" font-family="微软雅黑" text-anchor="middle" font-size="13" x="0.0" y="13.325">否</text></g></g><g id="ProcessOnG1172"><path id="ProcessOnPath1173" d="M727.0 1447.0L474.25 1447.0L474.25 1447.2285714285715L236.7360679774998 1447.2285714285715" stroke="#323232" stroke-width="2.0" stroke-dasharray="none" fill="none" marker-end="url(#ProcessOnMarker1174)"/><g id="ProcessOnG1176" transform="matrix(1.0,0.0,0.0,1.0,481.75374827446416,1438.875)"><path id="ProcessOnPath1177" d="M0 0H13.0V16.25H0Z" fill="#fff" transform="matrix(1.0,0.0,0.0,1.0,-6.5,0.0)"/><text id="ProcessOnText1178" fill="#000000" font-weight="normal" font-style="normal" text-decoration="blink" font-family="微软雅黑" text-anchor="middle" font-size="13" x="0.0" y="13.325">是</text></g></g><g id="ProcessOnG1179" transform="matrix(1.0,0.0,0.0,1.0,491.75,960.0)" opacity="1.0"><path id="ProcessOnPath1180" d="M0.0 47.0L67.75 0.0L135.5 47.0L67.75 94.0L0.0 47.0Z" stroke="#323232" stroke-width="2.0" stroke-dasharray="none" opacity="1.0" fill="#ffff66"/><g id="ProcessOnG1181" transform="matrix(1.0,0.0,0.0,1.0,10.0,38.875)"><text id="ProcessOnText1182" fill="#323232" font-weight="normal" font-style="normal" text-decoration="blink" font-family="Arial,宋体" text-anchor="middle" font-size="13" x="57.75" y="13.325">本地验证tgt是否过期？</text></g></g><g id="ProcessOnG1183"><path id="ProcessOnPath1184" d="M559.5 892.0L559.5 926.0L559.5 926.0L559.5 944.7639320225002" stroke="#323232" stroke-width="2.0" stroke-dasharray="none" fill="none" marker-end="url(#ProcessOnMarker1185)"/><g id="ProcessOnG1187" transform="matrix(1.0,0.0,0.0,1.0,559.5,910.2569660112501)"><path id="ProcessOnPath1188" d="M0 0H13.0V16.25H0Z" fill="#fff" transform="matrix(1.0,0.0,0.0,1.0,-6.5,0.0)"/><text id="ProcessOnText1189" fill="#000000" font-weight="normal" font-style="normal" text-decoration="blink" font-family="微软雅黑" text-anchor="middle" font-size="13" x="0.0" y="13.325">是</text></g></g><g id="ProcessOnG1190"><path id="ProcessOnPath1191" d="M627.25 1007.0L881.125 1007.0L881.125 1007.0L1119.7639320225003 1007.0" stroke="#323232" stroke-width="2.0" stroke-dasharray="none" fill="none" marker-end="url(#ProcessOnMarker1192)"/><g id="ProcessOnG1194" transform="matrix(1.0,0.0,0.0,1.0,873.5069660112501,998.875)"><path id="ProcessOnPath1195" d="M0 0H13.0V16.25H0Z" fill="#fff" transform="matrix(1.0,0.0,0.0,1.0,-6.5,0.0)"/><text id="ProcessOnText1196" fill="#000000" font-weight="normal" font-style="normal" text-decoration="blink" font-family="微软雅黑" text-anchor="middle" font-size="13" x="0.0" y="13.325">是</text></g></g><g id="ProcessOnG1197"><path id="ProcessOnPath1198" d="M559.5 1054.0L559.5 1088.0L559.5 1088.0L559.5 1106.7639320225003" stroke="#323232" stroke-width="2.0" stroke-dasharray="none" fill="none" marker-end="url(#ProcessOnMarker1199)"/><g id="ProcessOnG1201" transform="matrix(1.0,0.0,0.0,1.0,559.5,1072.2569660112501)"><path id="ProcessOnPath1202" d="M0 0H13.0V16.25H0Z" fill="#fff" transform="matrix(1.0,0.0,0.0,1.0,-6.5,0.0)"/><text id="ProcessOnText1203" fill="#000000" font-weight="normal" font-style="normal" text-decoration="blink" font-family="微软雅黑" text-anchor="middle" font-size="13" x="0.0" y="13.325">否</text></g></g><g id="ProcessOnG1204"><path id="ProcessOnPath1205" d="M862.5 1447.0L915.25 1447.0L915.25 1447.0L952.7639320225002 1447.0" stroke="#323232" stroke-width="2.0" stroke-dasharray="none" fill="none" marker-end="url(#ProcessOnMarker1206)"/><g id="ProcessOnG1208" transform="matrix(1.0,0.0,0.0,1.0,907.6319660112501,1438.875)"><path id="ProcessOnPath1209" d="M0 0H13.0V16.25H0Z" fill="#fff" transform="matrix(1.0,0.0,0.0,1.0,-6.5,0.0)"/><text id="ProcessOnText1210" fill="#000000" font-weight="normal" font-style="normal" text-decoration="blink" font-family="微软雅黑" text-anchor="middle" font-size="13" x="0.0" y="13.325">否</text></g></g><g id="ProcessOnG1211"><path id="ProcessOnPath1212" d="M627.25 1169.0L684.625 1169.0L684.625 1168.0L726.7639320225002 1168.0" stroke="#323232" stroke-width="2.0" stroke-dasharray="none" fill="none" marker-end="url(#ProcessOnMarker1213)"/><g id="ProcessOnG1215" transform="matrix(1.0,0.0,0.0,1.0,677.5069660112501,1160.875)"><path id="ProcessOnPath1216" d="M0 0H13.0V16.25H0Z" fill="#fff" transform="matrix(1.0,0.0,0.0,1.0,-6.5,0.0)"/><text id="ProcessOnText1217" fill="#000000" font-weight="normal" font-style="normal" text-decoration="blink" font-family="微软雅黑" text-anchor="middle" font-size="13" x="0.0" y="13.325">否</text></g></g><g id="ProcessOnG1218"><path id="ProcessOnPath1219" d="M627.25 1326.0L684.625 1326.0L684.625 1326.0L726.7639320225002 1326.0" stroke="#323232" stroke-width="2.0" stroke-dasharray="none" fill="none" marker-end="url(#ProcessOnMarker1220)"/><g id="ProcessOnG1222" transform="matrix(1.0,0.0,0.0,1.0,677.0069660112501,1317.875)"><path id="ProcessOnPath1223" d="M0 0H13.0V16.25H0Z" fill="#fff" transform="matrix(1.0,0.0,0.0,1.0,-6.5,0.0)"/><text id="ProcessOnText1224" fill="#000000" font-weight="normal" font-style="normal" text-decoration="blink" font-family="微软雅黑" text-anchor="middle" font-size="13" x="0.0" y="13.325">是</text></g></g><g id="ProcessOnG1225" transform="matrix(1.0,0.0,0.0,1.0,968.0,1400.0)" opacity="1.0"><path id="ProcessOnPath1226" d="M0.0 47.0L67.75 0.0L135.5 47.0L67.75 94.0L0.0 47.0Z" stroke="#323232" stroke-width="2.0" stroke-dasharray="none" opacity="1.0" fill="#ffff66"/><g id="ProcessOnG1227" transform="matrix(1.0,0.0,0.0,1.0,10.0,30.75)"><text id="ProcessOnText1228" fill="#323232" font-weight="normal" font-style="normal" text-decoration="blink" font-family="Arial,宋体" text-anchor="middle" font-size="13" x="57.75" y="13.325">服务器验证tgt是否过期</text><text id="ProcessOnText1229" fill="#323232" font-weight="normal" font-style="normal" text-decoration="blink" font-family="Arial,宋体" text-anchor="middle" font-size="13" x="57.75" y="29.575">？</text></g></g><g id="ProcessOnG1230" transform="matrix(1.0,0.0,0.0,1.0,968.0,1205.0)" opacity="1.0"><path id="ProcessOnPath1231" d="M0.0 47.0L67.75 0.0L135.5 47.0L67.75 94.0L0.0 47.0Z" stroke="#323232" stroke-width="2.0" stroke-dasharray="none" opacity="1.0" fill="#ffff66"/><g id="ProcessOnG1232" transform="matrix(1.0,0.0,0.0,1.0,10.0,38.875)"><text id="ProcessOnText1233" fill="#323232" font-weight="normal" font-style="normal" text-decoration="blink" font-family="Arial,宋体" text-anchor="middle" font-size="13" x="57.75" y="13.325">请求是否超过3次？</text></g></g><g id="ProcessOnG1234"><path id="ProcessOnPath1235" d="M1035.75 1400.0L1035.75 1349.5L1035.75 1349.5L1035.75 1314.2360679774997" stroke="#323232" stroke-width="2.0" stroke-dasharray="none" fill="none" marker-end="url(#ProcessOnMarker1236)"/><g id="ProcessOnG1238" transform="matrix(1.0,0.0,0.0,1.0,1035.75,1348.9930339887499)"><path id="ProcessOnPath1239" d="M0 0H13.0V16.25H0Z" fill="#fff" transform="matrix(1.0,0.0,0.0,1.0,-6.5,0.0)"/><text id="ProcessOnText1240" fill="#000000" font-weight="normal" font-style="normal" text-decoration="blink" font-family="微软雅黑" text-anchor="middle" font-size="13" x="0.0" y="13.325">否</text></g></g><g id="ProcessOnG1241"><path id="ProcessOnPath1242" d="M1035.75 1205.0L1035.75 1007.0L1119.7639320225003 1007.0" stroke="#323232" stroke-width="2.0" stroke-dasharray="none" fill="none" marker-end="url(#ProcessOnMarker1243)"/><g id="ProcessOnG1245" transform="matrix(1.0,0.0,0.0,1.0,1035.75,1055.8680339887499)"><path id="ProcessOnPath1246" d="M0 0H13.0V16.25H0Z" fill="#fff" transform="matrix(1.0,0.0,0.0,1.0,-6.5,0.0)"/><text id="ProcessOnText1247" fill="#000000" font-weight="normal" font-style="normal" text-decoration="blink" font-family="微软雅黑" text-anchor="middle" font-size="13" x="0.0" y="13.325">是</text></g></g><g id="ProcessOnG1248"><path id="ProcessOnPath1249" d="M968.0 1252.0L908.0 1252.0L908.0 1251.0L863.2360679774998 1251.0" stroke="#323232" stroke-width="2.0" stroke-dasharray="none" fill="none" marker-end="url(#ProcessOnMarker1250)"/><g id="ProcessOnG1252" transform="matrix(1.0,0.0,0.0,1.0,915.1180339887499,1243.875)"><path id="ProcessOnPath1253" d="M0 0H13.0V16.25H0Z" fill="#fff" transform="matrix(1.0,0.0,0.0,1.0,-6.5,0.0)"/><text id="ProcessOnText1254" fill="#000000" font-weight="normal" font-style="normal" text-decoration="blink" font-family="微软雅黑" text-anchor="middle" font-size="13" x="0.0" y="13.325">否</text></g></g><g id="ProcessOnG1255"><path id="ProcessOnPath1256" d="M1103.5 1447.0L1117.25 1447.0L1117.25 1007.0L1119.7639320225003 1007.0" stroke="#323232" stroke-width="2.0" stroke-dasharray="none" fill="none" marker-end="url(#ProcessOnMarker1257)"/><g id="ProcessOnG1259" transform="matrix(1.0,0.0,0.0,1.0,1117.25,1224.4930339887499)"><path id="ProcessOnPath1260" d="M0 0H13.0V16.25H0Z" fill="#fff" transform="matrix(1.0,0.0,0.0,1.0,-6.5,0.0)"/><text id="ProcessOnText1261" fill="#000000" font-weight="normal" font-style="normal" text-decoration="blink" font-family="微软雅黑" text-anchor="middle" font-size="13" x="0.0" y="13.325">是</text></g></g><g id="ProcessOnG1262"><path id="ProcessOnPath1263" d="M491.75 1326.0L356.875 1326.0L356.875 1326.0L237.2360679774998 1326.0" stroke="#323232" stroke-width="2.0" stroke-dasharray="none" fill="none" marker-end="url(#ProcessOnMarker1264)"/><g id="ProcessOnG1266" transform="matrix(1.0,0.0,0.0,1.0,364.4930339887499,1317.875)"><path id="ProcessOnPath1267" d="M0 0H13.0V16.25H0Z" fill="#fff" transform="matrix(1.0,0.0,0.0,1.0,-6.5,0.0)"/><text id="ProcessOnText1268" fill="#000000" font-weight="normal" font-style="normal" text-decoration="blink" font-family="微软雅黑" text-anchor="middle" font-size="13" x="0.0" y="13.325">否</text></g></g><g id="ProcessOnG1269" transform="matrix(1.0,0.0,0.0,1.0,318.625,1720.0)" opacity="1.0"><path id="ProcessOnPath1270" d="M0.0 0.0L107.0 0.0L107.0 60.0L0.0 60.0Z" stroke="#323232" stroke-width="2.0" stroke-dasharray="none" opacity="1.0" fill="#ff6666"/><g id="ProcessOnG1271" transform="matrix(1.0,0.0,0.0,1.0,10.0,13.75)"><text id="ProcessOnText1272" fill="#ffffff" font-weight="normal" font-style="normal" text-decoration="blink" font-family="Arial,宋体" text-anchor="middle" font-size="13" x="43.5" y="13.325">返回失败，请求结</text><text id="ProcessOnText1273" fill="#ffffff" font-weight="normal" font-style="normal" text-decoration="blink" font-family="Arial,宋体" text-anchor="middle" font-size="13" x="43.5" y="29.575">束</text></g></g><g id="ProcessOnG1274" transform="matrix(1.0,0.0,0.0,1.0,305.625,1551.0)" opacity="1.0"><path id="ProcessOnPath1275" d="M0.0 47.0L66.5 0.0L133.0 47.0L66.5 94.0L0.0 47.0Z" stroke="#323232" stroke-width="2.0" stroke-dasharray="none" opacity="1.0" fill="#ffff66"/><g id="ProcessOnG1276" transform="matrix(1.0,0.0,0.0,1.0,10.0,30.75)"><text id="ProcessOnText1277" fill="#323232" font-weight="normal" font-style="normal" text-decoration="blink" font-family="Arial,宋体" text-anchor="middle" font-size="13" x="56.5" y="13.325">失败分析，服务器验证返</text><text id="ProcessOnText1278" fill="#323232" font-weight="normal" font-style="normal" text-decoration="blink" font-family="Arial,宋体" text-anchor="middle" font-size="13" x="56.5" y="29.575">回是否需要登录？</text></g></g><g id="ProcessOnG1279"><path id="ProcessOnPath1280" d="M372.125 1645.0L372.125 1682.5L372.125 1682.5L372.125 1704.7639320225003" stroke="#323232" stroke-width="2.0" stroke-dasharray="none" fill="none" marker-end="url(#ProcessOnMarker1281)"/><g id="ProcessOnG1283" transform="matrix(1.0,0.0,0.0,1.0,372.125,1666.7569660112501)"><path id="ProcessOnPath1284" d="M0 0H13.0V16.25H0Z" fill="#fff" transform="matrix(1.0,0.0,0.0,1.0,-6.5,0.0)"/><text id="ProcessOnText1285" fill="#000000" font-weight="normal" font-style="normal" text-decoration="blink" font-family="微软雅黑" text-anchor="middle" font-size="13" x="0.0" y="13.325">否</text></g></g><g id="ProcessOnG1286" transform="matrix(1.0,0.0,0.0,1.0,506.5,1551.0)" opacity="1.0"><path id="ProcessOnPath1287" d="M0.0 47.0L67.75 0.0L135.5 47.0L67.75 94.0L0.0 47.0Z" stroke="#323232" stroke-width="2.0" stroke-dasharray="none" opacity="1.0" fill="#ffff66"/><g id="ProcessOnG1288" transform="matrix(1.0,0.0,0.0,1.0,10.0,38.875)"><text id="ProcessOnText1289" fill="#323232" font-weight="normal" font-style="normal" text-decoration="blink" font-family="Arial,宋体" text-anchor="middle" font-size="13" x="57.75" y="13.325">请求是否超过3次？</text></g></g><g id="ProcessOnG1290"><path id="ProcessOnPath1291" d="M438.625 1598.0L472.5625 1598.0L472.5625 1598.0L491.2639320225002 1598.0" stroke="#323232" stroke-width="2.0" stroke-dasharray="none" fill="none" marker-end="url(#ProcessOnMarker1292)"/><g id="ProcessOnG1294" transform="matrix(1.0,0.0,0.0,1.0,464.94446601125014,1589.875)"><path id="ProcessOnPath1295" d="M0 0H13.0V16.25H0Z" fill="#fff" transform="matrix(1.0,0.0,0.0,1.0,-6.5,0.0)"/><text id="ProcessOnText1296" fill="#000000" font-weight="normal" font-style="normal" text-decoration="blink" font-family="微软雅黑" text-anchor="middle" font-size="13" x="0.0" y="13.325">是</text></g></g><g id="ProcessOnG1297"><path id="ProcessOnPath1298" d="M574.25 1551.0L574.25 1521.0L428.0 1521.0L428.0 845.0L477.7639320225002 845.0" stroke="#323232" stroke-width="2.0" stroke-dasharray="none" fill="none" marker-end="url(#ProcessOnMarker1299)"/><g id="ProcessOnG1301" transform="matrix(1.0,0.0,0.0,1.0,428.0,1238.1180339887499)"><path id="ProcessOnPath1302" d="M0 0H13.0V16.25H0Z" fill="#fff" transform="matrix(1.0,0.0,0.0,1.0,-6.5,0.0)"/><text id="ProcessOnText1303" fill="#000000" font-weight="normal" font-style="normal" text-decoration="blink" font-family="微软雅黑" text-anchor="middle" font-size="13" x="0.0" y="13.325">否</text></g></g><g id="ProcessOnG1304"><path id="ProcessOnPath1305" d="M642.0 1598.0L1202.75 1598.0L1202.75 1069.2360679774997" stroke="#323232" stroke-width="2.0" stroke-dasharray="none" fill="none" marker-end="url(#ProcessOnMarker1306)"/><g id="ProcessOnG1308" transform="matrix(1.0,0.0,0.0,1.0,1186.7569660112501,1589.875)"><path id="ProcessOnPath1309" d="M0 0H13.0V16.25H0Z" fill="#fff" transform="matrix(1.0,0.0,0.0,1.0,-6.5,0.0)"/><text id="ProcessOnText1310" fill="#000000" font-weight="normal" font-style="normal" text-decoration="blink" font-family="微软雅黑" text-anchor="middle" font-size="13" x="0.0" y="13.325">是</text></g></g><g id="ProcessOnG1311"><path id="ProcessOnPath1312" d="M1202.75 960.0L1202.75 917.5L1202.75 917.5L1202.75 890.2360679774998" stroke="#323232" stroke-width="2.0" stroke-dasharray="none" fill="none" marker-end="url(#ProcessOnMarker1313)"/><g id="ProcessOnG1315" transform="matrix(1.0,0.0,0.0,1.0,1202.75,916.9930339887499)"><path id="ProcessOnPath1316" d="M0 0H13.0V16.25H0Z" fill="#fff" transform="matrix(1.0,0.0,0.0,1.0,-6.5,0.0)"/><text id="ProcessOnText1317" fill="#000000" font-weight="normal" font-style="normal" text-decoration="blink" font-family="微软雅黑" text-anchor="middle" font-size="13" x="0.0" y="13.325">是</text></g></g><g id="ProcessOnG1318" transform="matrix(1.0,0.0,0.0,1.0,1149.25,815.0)" opacity="1.0"><path id="ProcessOnPath1319" d="M0.0 0.0L107.0 0.0L107.0 60.0L0.0 60.0Z" stroke="#323232" stroke-width="2.0" stroke-dasharray="none" opacity="1.0" fill="#ff6666"/><g id="ProcessOnG1320" transform="matrix(1.0,0.0,0.0,1.0,10.0,13.75)"><text id="ProcessOnText1321" fill="#ffffff" font-weight="normal" font-style="normal" text-decoration="blink" font-family="Arial,宋体" text-anchor="middle" font-size="13" x="43.5" y="13.325">返回失败，请求结</text><text id="ProcessOnText1322" fill="#ffffff" font-weight="normal" font-style="normal" text-decoration="blink" font-family="Arial,宋体" text-anchor="middle" font-size="13" x="43.5" y="29.575">束</text></g></g></g></g></svg>